<mxfile host="65bd71144e">
    <diagram id="XpdApWttauRfRJBmCwZu" name="Page-1">
        <mxGraphModel dx="1468" dy="506" grid="1" gridSize="10" guides="1" tooltips="1" connect="1" arrows="1" fold="1" page="1" pageScale="1" pageWidth="850" pageHeight="1100" math="0" shadow="0">
            <root>
                <mxCell id="0"/>
                <mxCell id="1" parent="0"/>
                <mxCell id="iMUHe29IS4yF6Pl8tMEZ-1" value="Player 1" style="rounded=1;whiteSpace=wrap;html=1;fillColor=#60a917;strokeColor=#2D7600;fontColor=#ffffff;" parent="1" vertex="1">
                    <mxGeometry x="30" y="30" width="120" height="60" as="geometry"/>
                </mxCell>
                <mxCell id="iMUHe29IS4yF6Pl8tMEZ-2" value="Player 2&lt;span style=&quot;color: rgba(0 , 0 , 0 , 0) ; font-family: monospace ; font-size: 0px&quot;&gt;%3CmxGraphModel%3E%3Croot%3E%3CmxCell%20id%3D%220%22%2F%3E%3CmxCell%20id%3D%221%22%20parent%3D%220%22%2F%3E%3CmxCell%20id%3D%222%22%20value%3D%22Player%201%22%20style%3D%22rounded%3D1%3BwhiteSpace%3Dwrap%3Bhtml%3D1%3B%22%20vertex%3D%221%22%20parent%3D%221%22%3E%3CmxGeometry%20x%3D%2230%22%20y%3D%2220%22%20width%3D%22120%22%20height%3D%2260%22%20as%3D%22geometry%22%2F%3E%3C%2FmxCell%3E%3C%2Froot%3E%3C%2FmxGraphModel%3E&lt;/span&gt;" style="rounded=1;whiteSpace=wrap;html=1;fillColor=#60a917;strokeColor=#2D7600;fontColor=#ffffff;" parent="1" vertex="1">
                    <mxGeometry x="190" y="30" width="120" height="60" as="geometry"/>
                </mxCell>
                <mxCell id="iMUHe29IS4yF6Pl8tMEZ-3" value="Computer" style="rounded=1;whiteSpace=wrap;html=1;fillColor=#60a917;strokeColor=#2D7600;fontColor=#ffffff;" parent="1" vertex="1">
                    <mxGeometry x="340" y="30" width="120" height="60" as="geometry"/>
                </mxCell>
                <mxCell id="iMUHe29IS4yF6Pl8tMEZ-4" value="Display Rules" style="rounded=1;whiteSpace=wrap;html=1;fillColor=#60a917;strokeColor=#2D7600;fontColor=#ffffff;" parent="1" vertex="1">
                    <mxGeometry x="130" y="120" width="250" height="70" as="geometry"/>
                </mxCell>
                <mxCell id="iMUHe29IS4yF6Pl8tMEZ-5" value="Prompt for 2 players or vs AI" style="rounded=1;whiteSpace=wrap;html=1;fillColor=#60a917;strokeColor=#2D7600;fontColor=#ffffff;" parent="1" vertex="1">
                    <mxGeometry x="130" y="200" width="250" height="60" as="geometry"/>
                </mxCell>
                <mxCell id="iMUHe29IS4yF6Pl8tMEZ-6" value="Input player or players names" style="rounded=1;whiteSpace=wrap;html=1;fillColor=#60a917;strokeColor=#2D7600;fontColor=#ffffff;" parent="1" vertex="1">
                    <mxGeometry x="130" y="270" width="260" height="60" as="geometry"/>
                </mxCell>
                <mxCell id="iMUHe29IS4yF6Pl8tMEZ-8" value="Player VS Player&lt;br&gt;tell one player to close their eyes&lt;br&gt;player 1 input choice&lt;br&gt;player 2 input choice&lt;br&gt;compare the results" style="rounded=1;whiteSpace=wrap;html=1;" parent="1" vertex="1">
                    <mxGeometry x="-100" y="350" width="220" height="120" as="geometry"/>
                </mxCell>
                <mxCell id="iMUHe29IS4yF6Pl8tMEZ-9" value="Player VS AI&lt;br&gt;Player 1 input choice&lt;br&gt;computer is randomly selected&lt;br&gt;" style="rounded=1;whiteSpace=wrap;html=1;fillColor=#60a917;strokeColor=#2D7600;fontColor=#ffffff;" parent="1" vertex="1">
                    <mxGeometry x="340" y="350" width="200" height="120" as="geometry"/>
                </mxCell>
                <mxCell id="iMUHe29IS4yF6Pl8tMEZ-10" value="Winner gets a point&lt;br&gt;Points are compared = 1/2 value of rounds: winner is declared" style="rounded=1;whiteSpace=wrap;html=1;" parent="1" vertex="1">
                    <mxGeometry x="150" y="480" width="160" height="100" as="geometry"/>
                </mxCell>
                <mxCell id="iMUHe29IS4yF6Pl8tMEZ-15" value="Game" style="swimlane;fontStyle=0;childLayout=stackLayout;horizontal=1;startSize=26;fillColor=none;horizontalStack=0;resizeParent=1;resizeParentMax=0;resizeLast=0;collapsible=1;marginBottom=0;" parent="1" vertex="1">
                    <mxGeometry x="450" y="140" width="140" height="104" as="geometry"/>
                </mxCell>
                <mxCell id="iMUHe29IS4yF6Pl8tMEZ-16" value="Welcome:rules" style="text;strokeColor=none;fillColor=none;align=left;verticalAlign=top;spacingLeft=4;spacingRight=4;overflow=hidden;rotatable=0;points=[[0,0.5],[1,0.5]];portConstraint=eastwest;" parent="iMUHe29IS4yF6Pl8tMEZ-15" vertex="1">
                    <mxGeometry y="26" width="140" height="26" as="geometry"/>
                </mxCell>
                <mxCell id="iMUHe29IS4yF6Pl8tMEZ-17" value="prompt for type of game" style="text;strokeColor=none;fillColor=none;align=left;verticalAlign=top;spacingLeft=4;spacingRight=4;overflow=hidden;rotatable=0;points=[[0,0.5],[1,0.5]];portConstraint=eastwest;" parent="iMUHe29IS4yF6Pl8tMEZ-15" vertex="1">
                    <mxGeometry y="52" width="140" height="26" as="geometry"/>
                </mxCell>
                <mxCell id="iMUHe29IS4yF6Pl8tMEZ-18" value="player input, names" style="text;strokeColor=none;fillColor=none;align=left;verticalAlign=top;spacingLeft=4;spacingRight=4;overflow=hidden;rotatable=0;points=[[0,0.5],[1,0.5]];portConstraint=eastwest;" parent="iMUHe29IS4yF6Pl8tMEZ-15" vertex="1">
                    <mxGeometry y="78" width="140" height="26" as="geometry"/>
                </mxCell>
                <mxCell id="iMUHe29IS4yF6Pl8tMEZ-19" value="&lt;br&gt;if input == rock&lt;br&gt;&lt;br&gt;compare_rock_results(opponent_selection)&lt;br&gt;if opponent_selection == &quot;rock&quot;&amp;nbsp;&lt;br&gt;draw&lt;br&gt;if opponent_select == [scissors, lizard]&lt;br&gt;rock wins&lt;br&gt;if opponent _select == [paper, Spock]&lt;br&gt;rock loses" style="rounded=0;whiteSpace=wrap;html=1;fillColor=#60a917;strokeColor=#2D7600;fontColor=#ffffff;" parent="1" vertex="1">
                    <mxGeometry x="630" y="435" width="280" height="190" as="geometry"/>
                </mxCell>
                <mxCell id="iMUHe29IS4yF6Pl8tMEZ-20" value="Turn:&lt;br&gt;player points:&lt;br&gt;computer:points&lt;br&gt;&lt;br&gt;method: input choice(s)" style="rounded=0;whiteSpace=wrap;html=1;" parent="1" vertex="1">
                    <mxGeometry x="-320" y="352" width="190" height="190" as="geometry"/>
                </mxCell>
                <mxCell id="iMUHe29IS4yF6Pl8tMEZ-21" value="&lt;br&gt;if input == paper&lt;br&gt;&lt;br&gt;compare_rock_results(opponent_selection)&lt;br&gt;if opponent_selection == &quot;paper&quot;&amp;nbsp;&lt;br&gt;draw&lt;br&gt;if opponent_select == [rock, spock]&lt;br&gt;paper wins&lt;br&gt;if opponent _select == [lizard, scissors]&lt;br&gt;paper loses" style="rounded=0;whiteSpace=wrap;html=1;fillColor=#60a917;strokeColor=#2D7600;fontColor=#ffffff;" parent="1" vertex="1">
                    <mxGeometry x="630" y="230" width="280" height="190" as="geometry"/>
                </mxCell>
                <mxCell id="iMUHe29IS4yF6Pl8tMEZ-22" value="&lt;br&gt;if input == scissors&lt;br&gt;&lt;br&gt;compare_rock_results(opponent_selection)&lt;br&gt;if opponent_selection == &quot;scissor&quot;&amp;nbsp;&lt;br&gt;draw&lt;br&gt;if opponent_select == [paper, lizard]&lt;br&gt;scissors wins&lt;br&gt;if opponent _select == [rock, spock]&lt;br&gt;scissors loses" style="rounded=0;whiteSpace=wrap;html=1;fillColor=#60a917;strokeColor=#2D7600;fontColor=#ffffff;" parent="1" vertex="1">
                    <mxGeometry x="930" y="230" width="280" height="190" as="geometry"/>
                </mxCell>
                <mxCell id="iMUHe29IS4yF6Pl8tMEZ-23" value="if input == spock&lt;br&gt;&lt;br&gt;compare_rock_results(opponent_selection)&lt;br&gt;if opponent_selection == &quot;spock&quot;&amp;nbsp;&lt;br&gt;draw&lt;br&gt;if opponent_select == [scissors, rock]&lt;br&gt;spock wins&lt;br&gt;if opponent _select == [paper, lizard]&lt;br&gt;spock loses" style="rounded=0;whiteSpace=wrap;html=1;fillColor=#60a917;strokeColor=#2D7600;fontColor=#ffffff;" parent="1" vertex="1">
                    <mxGeometry x="930" y="435" width="280" height="190" as="geometry"/>
                </mxCell>
                <mxCell id="iMUHe29IS4yF6Pl8tMEZ-24" value="if input == lizard&lt;br&gt;&lt;br&gt;compare_rock_results(opponent_selection)&lt;br&gt;if opponent_selection == &quot;lizard&quot;&amp;nbsp;&lt;br&gt;draw&lt;br&gt;if opponent_select == [spock, paper]&lt;br&gt;lizard wins&lt;br&gt;if opponent _select == [rock, scissors]&lt;br&gt;lizard loses" style="rounded=0;whiteSpace=wrap;html=1;fillColor=#60a917;strokeColor=#2D7600;fontColor=#ffffff;" parent="1" vertex="1">
                    <mxGeometry x="1230" y="330" width="280" height="190" as="geometry"/>
                </mxCell>
                <mxCell id="2" value="Compare Results" style="rounded=1;whiteSpace=wrap;html=1;" vertex="1" parent="1">
                    <mxGeometry x="450" y="500" width="120" height="60" as="geometry"/>
                </mxCell>
            </root>
        </mxGraphModel>
    </diagram>
</mxfile>